<svg xmlns="http://www.w3.org/2000/svg" viewBox="0 0 500 500">
  <g id="background-complete">
    <path d="M454,500c-2-30-3-60-4-90-2-84,6-167,8-250,2-53,1-107-4-160,8,88,6,176,0,265-6,79-4,157,1,235Z" style="fill:#ebebeb">
    </path>
    <path d="M409,500c-1-15-1-30-2-45-3-44-1-87-2-130,7-108,12-217,4-325a1506.23,1506.23,0,0,1,3,190c-3,75-9,150-7,225,1,28,2,57,4,85Z" style="fill:#ebebeb">
    </path>
    <path d="M364,500a1405.1,1405.1,0,0,1-5-145c1-28,1-57,3-85,5-62,7-123,6-185-1-28-2-57-4-85a1278.1,1278.1,0,0,1,3,175c-4,108-11,217-3,325Z" style="fill:#ebebeb">
    </path>
    <path d="M318,500c-2-28-3-57-4-85-1-62,1-123,6-185,2-28,2-57,3-85A1405.1,1405.1,0,0,0,318,0c5,53,6,107,4,160-3,113-13,227-3,340Z" style="fill:#ebebeb">
    </path>
    <path d="M273,500c-5-60-5-120-3-180,3-82,10-163,7-245-1-25-2-50-4-75,4,45,6,90,4,135,0,17,1,33,0,50l-3,60c-1,5-1,10-2,15-2,23-2,47-3,70-1,57,0,113,4,170Z" style="fill:#ebebeb">
    </path>
    <path d="M228,500c-5-52-6-103-5-155,1-20,1-40,2-60,2-28,4-57,5-85,4-67,1-133-2-200,3,58,6,116,3,175-1,47-5,93-7,140-1,15,0,30,0,45a1309.2,1309.2,0,0,0,4,140Z" style="fill:#ebebeb">
    </path>
    <path d="M182,500c-1-15-1-30-2-45-3-44-1-87-2-130,7-108,12-217,4-325a1506.23,1506.23,0,0,1,3,190c-3,75-9,150-7,225,1,28,3,57,4,85Z" style="fill:#ebebeb">
    </path>
    <path d="M137,500a1405.1,1405.1,0,0,1-5-145c1-28,1-57,3-85,8-90,7-180,2-270,5,60,5,120,4,180-1,45-6,90-7,135-2,38-1,77-1,115,1,23,2,47,4,70Z" style="fill:#ebebeb">
    </path>
    <path d="M91,500c-2-57-5-113-3-170,2-60,7-120,8-180,0-50-1-100-5-150,6,55,6,110,5,165-2,80-11,160-9,240,1,25,1,50,4,75,0,7-1,13,1,20Z" style="fill:#ebebeb">
    </path>
    <path d="M46,500c-5-60-5-120-4-180,1-47,6-93,7-140Q52,90,46,0c4,47,5,93,5,140-1,23-1,47-2,70-2,38-5,77-6,115-2,59,0,117,3,175Z" style="fill:#ebebeb">
    </path>
    <path d="M0,454c15-1,30-1,45-2,44-3,87-1,130-2,108,7,217,12,325,4a1506.23,1506.23,0,0,1-190,3c-75-3-150-9-225-7-28,1-57,3-85,4Z" style="fill:#ebebeb">
    </path>
    <path d="M0,409a1405.1,1405.1,0,0,1,145-5c28,1,57,1,85,3,90,8,180,7,270,2-60,5-120,5-180,4-45-1-90-6-135-7-38-2-77-1-115-1-23,1-47,2-70,4Z" style="fill:#ebebeb">
    </path>
    <path d="M0,363c57-2,113-5,170-3,60,2,120,7,180,8,50,0,100-1,150-5-55,6-110,6-165,5-80-2-160-11-240-9-25,1-50,1-75,4-7,0-13-1-20,1v-1Z" style="fill:#ebebeb">
    </path>
    <path d="M0,318c60-5,120-5,180-4,47,1,93,6,140,7q90,3,180-3c-47,4-93,5-140,5-23-1-47-1-70-2-38-2-77-5-115-6-59-2-117,0-175,3Z" style="fill:#ebebeb">
    </path>
    <path d="M0,273c52-5,103-6,155-5,20,1,40,1,60,2,28,2,57,4,85,5,67,4,133,1,200-2-97,6-193,4-290-2-70-5-140-4-210,2Z" style="fill:#ebebeb">
    </path>
    <path d="M0,227c97-6,193-4,290,2,70,5,140,4,210-2-52,5-103,6-155,5-20-1-40-1-60-2-28-2-57-4-85-5-67-4-133-1-200,2Z" style="fill:#ebebeb">
    </path>
    <path d="M0,182c47-4,93-5,140-5,23,1,47,1,70,2,38,2,77,5,115,6,59,2,117,0,175-3-60,5-120,5-180,4-47-1-93-6-140-7q-90-3-180,3Z" style="fill:#ebebeb">
    </path>
    <path d="M0,136c57-2,113-5,170-4,58,2,117,8,175,9,52,1,103,0,155-5-55,6-110,6-165,5-78-2-156-11-235-9-27,1-53,0-80,3-7,1-13,0-20,2v-1Z" style="fill:#ebebeb">
    </path>
    <path d="M0,91c60-5,120-5,180-4,45,1,90,6,135,7,38,2,77,1,115,1,23-1,47-2,70-4a1405.1,1405.1,0,0,1-145,5c-28-1-57-1-85-3C180,85,90,86,0,91Z" style="fill:#ebebeb">
    </path>
    <path d="M0,46a1506.23,1506.23,0,0,1,190-3c75,3,150,9,225,7,28-1,57-3,85-4-15,1-30,1-45,2-44,3-87,1-130,2C217,43,108,38,0,46Z" style="fill:#ebebeb">
    </path>
  </g>
  <g id="Water">
    <g style="opacity:0.1">
      <rect width="500" height="500" style="fill:#407BFF">
      </rect>
      <path d="M123.5-.17,104.56,0c6.88,28.33,12.4,73.19-40.23,110.11C23.76,138.57,0,185.22,0,185.22v43.34S16.38,162,59.22,126.11C106.72,86.33,153.83,48,123.5-.17Z" style="fill:#fff">
      </path>
      <path d="M314.67,0,295-.17c-59.56,33.28.05,36.14-20.5,93.57-28.78,80.38-153.72-40.62-153.72-40.62v6.89S251.62,190,280.39,109.6C301,52.18,255.11,33.28,314.67,0Z" style="fill:#fff">
      </path>
      <path d="M185.1,220.42C227,117.19,245.92,127,245.92,127l-7.75-1.33s-18.51-7.85-72.69,98.08C142.77,268.13,66.33,295.89,0,291.89v22.22S143.17,323.66,185.1,220.42Z" style="fill:#fff">
      </path>
      <path d="M170.33,240.33l-9.11,11.56S225.67,427.67,135,500h33S223,378.33,170.33,240.33Z" style="fill:#fff">
      </path>
      <path d="M387.89,200.78c-99.26-34.43-217.56,39.55-217.56,39.55l-5.33,4s-.94,3.74,7.33,12c110.23-93.76,219.13-50.47,248.34-27.79C469.89,266.78,500,323,500,323V299C489.89,280.78,469.89,229.22,387.89,200.78Z" style="fill:#fff">
      </path>
      <path d="M181.33,289.08S423.22,279.44,500,422.56V441S433.61,304.13,177.23,302C178.74,296.88,181.33,289.08,181.33,289.08Z" style="fill:#fff">
      </path>
      <path d="M356.76-.17H344.33S333,135.44,500,203.89V185.67S350.52,142.44,356.76-.17Z" style="fill:#fff">
      </path>
      <path d="M415.78,355.33l-3.89-6.55s-178.67,42.44-48,151.22h18.94S265.89,395.67,415.78,355.33Z" style="fill:#fff">
      </path>
      <path d="M0,397.44V386.33S153.22,345,167.24,478.7L154.77,493S151.91,365.58,0,397.44Z" style="fill:#fff">
      </path>
    </g>
  </g>
</svg>

