<svg xmlns="http://www.w3.org/2000/svg" viewBox="0 0 500 500" role="img" aria-label="Pool ripples">
  <defs>
    <linearGradient id="bg" x1="0" y1="0" x2="1" y2="1">
      <stop offset="0%" stop-color="#f7fbff" />
      <stop offset="100%" stop-color="#e8f3fc" />
    </linearGradient>
    <linearGradient id="wave" x1="0" y1="0" x2="1" y2="0">
      <stop offset="0%" stop-color="#6fb7ea" />
      <stop offset="100%" stop-color="#407BFF" />
    </linearGradient>
  </defs>
  <rect x="0" y="0" width="500" height="500" rx="28" fill="url(#bg)" />
  <path d="M40 180 C90 148, 150 148, 200 180 C250 212, 310 212, 360 180 C400 156, 440 156, 470 176" fill="none" stroke="url(#wave)" stroke-width="12" stroke-linecap="round" opacity="0.95"/>
  <path d="M30 230 C88 198, 156 198, 214 230 C272 262, 340 262, 398 230 C430 212, 460 212, 480 226" fill="none" stroke="url(#wave)" stroke-width="12" stroke-linecap="round" opacity="0.82"/>
  <path d="M20 280 C82 248, 154 248, 216 280 C278 312, 350 312, 412 280 C442 265, 468 265, 488 276" fill="none" stroke="url(#wave)" stroke-width="12" stroke-linecap="round" opacity="0.7"/>
  <path d="M28 330 C86 300, 154 300, 212 330 C270 360, 338 360, 396 330 C428 314, 456 314, 478 326" fill="none" stroke="url(#wave)" stroke-width="11" stroke-linecap="round" opacity="0.58"/>
</svg>
